# xmcd
#
# Track frame offsets:
#	150
#	17779
#	37487
#	49881
#	61441
#	74288
#	85897
#	97010
#	111226
#	125869
#	142965
#	161995
#	172636
#	189860
#	206388
#	221255
#	236565
#	251829
#	268026
#	281161
#	299033
#	312573
#	324168
#	336547
#
# Disc length: 4739 seconds
#
# Revision: 0
# Processed by: cddbd v1.5.2PL0 Copyright (c) Steve Scherf et al.
# Submitted via: EasyCDDAExtractor 10.0.3.1
#
DISCID=81128118
DTITLE=Various Artist - The Best Country Album...Ever
DYEAR=1900
DGENRE=
TTITLE0=Shania Twain - Man I Feel Like A Woman!
TTITLE1=The Mavericks - Dance The Night Away
TTITLE2=Dolly Parton - 9 To 5
TTITLE3=Johnny Cash - Ring Of Fire
TTITLE4=Lynn Anderson - Rose Garden
TTITLE5=Roy Orbison - Dream Baby (How Long Must I Dream)
TTITLE6=Roger Miller - King Of The Road
TTITLE7=Glen Campbell - Rhinestone Cowboy
TTITLE8=The Bellamy Brothers - Let Your Love Flow
TTITLE9=C. W. McCall - Convoy
TTITLE10=The Soggy Bottom Boys - I Am A Man Of Constant Sorrow
TTITLE11=Leroy Van Dyke - Walk On By
TTITLE12=Alan Jackson And Jimmy Buffett - It's Five O'Clock Somewhere
TTITLE13=Tony Joe White - Polk Salad Annie
TTITLE14=Asleep At The Wheel - Lay Down Sally
TTITLE15=Tim McGraw - I Like It, I Love It
TTITLE16=Billy Ray Cyrus - Achy Breaky Heart
TTITLE17=The Charlie Daniels Band - The Devil Went Down To Georgia
TTITLE18=The Flying Burrito Brothers - Six Days On The Road
TTITLE19=Pat Green - Wave On Wave
TTITLE20=Kenny Rogers And The First Edition - Ruby, Don't Take Your Love To To
TTITLE20=wn
TTITLE21=Patsy Cline - Walkin' After Midnight
TTITLE22=Jim Reeves - I Love You Because
TTITLE23=Nanci Griffith - From A Distance
EXTD=
EXTT0=
EXTT1=
EXTT2=
EXTT3=
EXTT4=
EXTT5=
EXTT6=
EXTT7=
EXTT8=
EXTT9=
EXTT10=
EXTT11=
EXTT12=
EXTT13=
EXTT14=
EXTT15=
EXTT16=
EXTT17=
EXTT18=
EXTT19=
EXTT20=
EXTT21=
EXTT22=
EXTT23=
PLAYORDER=
